<svg xmlns="http://www.w3.org/2000/svg" width="280" height="280" fill="none"><g clip-path="url(#a)"><path fill="#CEE5FF" d="M140 260c66.274 0 120-53.726 120-120S206.274 20 140 20 20 73.726 20 140s53.726 120 120 120Z"/><path fill="#133578" d="M215.865 38.53H76.271c-6.627 0-12 5.373-12 12v155.04c0 6.627 5.373 12 12 12h139.594c6.628 0 12-5.373 12-12V50.53c0-6.627-5.372-12-12-12Z"/><path fill="#fff" d="M203.594 25.584H64c-6.627 0-12 5.373-12 12v155.04c0 6.628 5.373 12 12 12h139.594c6.627 0 12-5.372 12-12V37.584c0-6.627-5.373-12-12-12Z"/><path fill="#0075FF" d="M52 37.584c0-6.627 5.373-12 12-12h139.594c6.628 0 12 5.373 12 12v12.307H52V37.586Z"/><path fill="#EFF0F7" d="M86.36 86.617H75.37a8 8 0 0 0-8 8v10.991a8 8 0 0 0 8 8h10.99a8 8 0 0 0 8-8v-10.99a8 8 0 0 0-8-8ZM86.36 121.608H75.37a8 8 0 0 0-8 8v10.99a8 8 0 0 0 8 8h10.99a8 8 0 0 0 8-8v-10.99a8 8 0 0 0-8-8ZM86.36 156.598H75.37a8 8 0 0 0-8 8v10.99a8 8 0 0 0 8 8h10.99a8 8 0 0 0 8-8v-10.99a8 8 0 0 0-8-8ZM120.351 86.617h-10.99a8 8 0 0 0-8 8v10.991a8 8 0 0 0 8 8h10.99a8 8 0 0 0 8-8v-10.99a8 8 0 0 0-8-8Z"/><path fill="#4B3CFB" d="M120.351 121.608h-10.99a8 8 0 0 0-8 8v10.99a8 8 0 0 0 8 8h10.99a8 8 0 0 0 8-8v-10.99a8 8 0 0 0-8-8Z"/><path fill="#EFF0F7" d="M120.351 156.598h-10.99a8 8 0 0 0-8 8v10.99a8 8 0 0 0 8 8h10.99a8 8 0 0 0 8-8v-10.99a8 8 0 0 0-8-8ZM154.341 86.617h-10.99a8 8 0 0 0-8 8v10.991a8 8 0 0 0 8 8h10.99a8 8 0 0 0 8-8v-10.99a8 8 0 0 0-8-8ZM154.341 121.608h-10.99a8 8 0 0 0-8 8v10.99a8 8 0 0 0 8 8h10.99a8 8 0 0 0 8-8v-10.99a8 8 0 0 0-8-8ZM154.341 156.598h-10.99a8 8 0 0 0-8 8v10.99a8 8 0 0 0 8 8h10.99a8 8 0 0 0 8-8v-10.99a8 8 0 0 0-8-8ZM188.331 86.617h-10.99a8 8 0 0 0-8 8v10.991a8 8 0 0 0 8 8h10.99a8 8 0 0 0 8-8v-10.99a8 8 0 0 0-8-8ZM188.331 121.608h-10.99a8 8 0 0 0-8 8v10.99a8 8 0 0 0 8 8h10.99a8 8 0 0 0 8-8v-10.99a8 8 0 0 0-8-8ZM188.331 156.598h-10.99a8 8 0 0 0-8 8v10.99a8 8 0 0 0 8 8h10.99a8 8 0 0 0 8-8v-10.99a8 8 0 0 0-8-8Z"/><path fill="#A0A3BD" d="M90.36 66.511H71.37a4 4 0 1 0 0 8h18.99a4 4 0 0 0 0-8ZM124.351 66.511h-18.99a4 4 0 0 0 0 8h18.99a4 4 0 0 0 0-8ZM158.341 66.511h-18.99a4 4 0 0 0 0 8h18.99a4 4 0 0 0 0-8ZM192.331 66.511h-18.99a4 4 0 0 0 0 8h18.99a4 4 0 0 0 0-8Z" opacity=".6"/></g><defs><clipPath id="a"><path fill="#fff" d="M20 20h240v240H20z"/></clipPath></defs></svg>