<svg xmlns="http://www.w3.org/2000/svg" width="280" height="280" fill="none"><g clip-path="url(#a)"><path fill="#CEE5FF" d="M139.947 260c66.248 0 119.953-53.726 119.953-120S206.195 20 139.947 20 19.994 73.726 19.994 140s53.705 120 119.953 120Z"/><path fill="#133578" d="M180.214 123.346 39.452 98.516c-8.158-1.44-15.937 4.008-17.375 12.166L7.604 192.794c-1.438 8.158 4.01 15.939 12.168 17.378l140.762 24.829c8.158 1.44 15.937-4.008 17.375-12.166l14.473-82.111c1.438-8.159-4.01-15.939-12.168-17.378Z"/><path fill="#fff" d="M189.21 115.346 48.448 90.516c-8.159-1.439-15.938 4.008-17.376 12.167L16.6 184.794c-1.438 8.159 4.01 15.939 12.168 17.378l140.762 24.83c8.159 1.439 15.938-4.008 17.376-12.167l14.473-82.111c1.438-8.158-4.01-15.939-12.168-17.378Z"/><path fill="#4B3CFB" d="m59.296 116.604-13.82-2.437A2.999 2.999 0 0 0 42 116.6l-1.5 8.504a3 3 0 0 0 2.434 3.476l13.82 2.438a3 3 0 0 0 3.476-2.434l1.498-8.504a3 3 0 0 0-2.433-3.476Z"/><path fill="#DCDDEB" d="M96.568 184.933 30.55 173.288a3 3 0 0 0-3.475 2.433l-1 5.668a3 3 0 0 0 2.435 3.476l66.017 11.645a3 3 0 0 0 3.475-2.433l1-5.668a3 3 0 0 0-2.434-3.476Z"/><path fill="#0075FF" d="M141.6 207.463a8.482 8.482 0 0 0 9.826-6.884 8.482 8.482 0 1 0-16.706-2.947 8.485 8.485 0 0 0 6.88 9.831Z" style="mix-blend-mode:multiply"/><path fill="#CEE5FF" d="M153.263 209.52a8.486 8.486 0 0 0 2.946-16.714 8.482 8.482 0 0 0-9.826 6.883 8.485 8.485 0 0 0 6.88 9.831Z" style="mix-blend-mode:multiply"/><path fill="#EFF0F7" d="m57.8 149.729-22.243-3.923a3.16 3.16 0 0 0-1.097 6.224l22.243 3.923a3.159 3.159 0 0 0 3.66-2.563 3.161 3.161 0 0 0-2.563-3.661ZM95.127 156.315l-22.243-3.924a3.16 3.16 0 0 0-1.097 6.224l22.243 3.924a3.16 3.16 0 0 0 1.097-6.224ZM132.454 162.899l-22.243-3.924a3.161 3.161 0 0 0-1.097 6.224l22.243 3.924a3.16 3.16 0 0 0 1.097-6.224ZM169.78 169.483l-22.243-3.924a3.16 3.16 0 0 0-1.097 6.224l22.243 3.924a3.16 3.16 0 1 0 1.097-6.224Z"/><path fill="#133578" d="M232.612 46.587 91.85 71.417c-8.158 1.44-13.606 9.22-12.168 17.378l14.473 82.111c1.438 8.159 9.217 13.606 17.376 12.167l140.761-24.83c8.159-1.439 13.607-9.219 12.169-17.378l-14.473-82.111c-1.438-8.159-9.218-13.606-17.376-12.167Z"/><path fill="#0075FF" d="M239.151 37.264 98.389 62.093c-8.158 1.438-13.606 9.219-12.168 17.377l14.473 82.112c1.438 8.158 9.217 13.605 17.376 12.166l140.762-24.83c8.158-1.439 13.606-9.219 12.168-17.378L256.527 49.43c-1.438-8.158-9.217-13.606-17.376-12.166Z"/><path fill="#133578" d="M257.493 54.915 87.188 84.956l3.58 20.317 170.306-30.041-3.581-20.317ZM146.22 111.22l-41.042 7.24a3.16 3.16 0 0 0 1.097 6.224l41.042-7.24a3.16 3.16 0 0 0-1.097-6.224ZM183.261 104.686l-25.171 4.44a3.16 3.16 0 0 0-2.563 3.661 3.157 3.157 0 0 0 3.66 2.563l25.171-4.44a3.161 3.161 0 0 0-1.097-6.224Z"/></g><defs><clipPath id="a"><path fill="#fff" d="M5 20h270v240H5z"/></clipPath></defs></svg>