<svg xmlns="http://www.w3.org/2000/svg" width="198" height="198" fill="none"><g clip-path="url(#a)"><path fill="#fff" d="M99 198c54.676 0 99-44.324 99-99S153.676 0 99 0 0 44.324 0 99s44.324 99 99 99Z"/><g filter="url(#b)"><path fill="red" fill-opacity=".01" d="M86.484 74.647c-5.22-3.071-11.801.693-11.801 6.75v36.818c0 6.056 6.58 9.82 11.8 6.75l31.295-18.408c5.148-3.027 5.148-10.47.001-13.499L86.484 74.647Z"/></g><path fill="#0075FF" d="M83.165 68.714c-5.22-3.072-11.802.692-11.802 6.749v47.075c0 6.057 6.58 9.821 11.801 6.75l40.012-23.535c5.148-3.028 5.148-10.471.001-13.5l-40.012-23.54Z"/></g><defs><clipPath id="a"><path fill="#fff" d="M0 0h198v198H0z"/></clipPath><filter id="b" width="46.956" height="62.504" x="74.683" y="73.554" color-interpolation-filters="sRGB" filterUnits="userSpaceOnUse"><feFlood flood-opacity="0" result="BackgroundImageFix"/><feBlend in="SourceGraphic" in2="BackgroundImageFix" result="shape"/><feColorMatrix in="SourceAlpha" result="hardAlpha" values="0 0 0 0 0 0 0 0 0 0 0 0 0 0 0 0 0 0 127 0"/><feOffset dy="10"/><feGaussianBlur stdDeviation="14"/><feComposite in2="hardAlpha" k2="-1" k3="1" operator="arithmetic"/><feColorMatrix values="0 0 0 0 0 0 0 0 0 0.46 0 0 0 0 1 0 0 0 0.26 0"/><feBlend in2="shape" result="effect1_innerShadow_1_549"/></filter></defs></svg>