<svg xmlns="http://www.w3.org/2000/svg" width="240" height="240" fill="none"><g clip-path="url(#a)"><path fill="#CEE5FF" d="M120 240c66.274 0 120-53.726 120-120S186.274 0 120 0 0 53.726 0 120s53.726 120 120 120Z"/><path fill="#133578" d="M195.865 18.53H56.271c-6.627 0-12 5.373-12 12v155.04c0 6.627 5.373 12 12 12h139.594c6.628 0 12-5.373 12-12V30.53c0-6.627-5.372-12-12-12Z"/><path fill="#fff" d="M183.594 5.584H44c-6.627 0-12 5.373-12 12v155.04c0 6.628 5.373 12 12 12h139.594c6.627 0 12-5.372 12-12V17.584c0-6.627-5.373-12-12-12Z"/><path fill="#0075FF" d="M32 17.584c0-6.627 5.373-12 12-12h139.594c6.628 0 12 5.373 12 12v12.308H32V17.584Z"/><path fill="#EFF0F7" d="M66.36 66.617H55.37a8 8 0 0 0-8 8v10.99a8 8 0 0 0 8 8h10.99a8 8 0 0 0 8-8v-10.99a8 8 0 0 0-8-8ZM66.36 101.608H55.37a8 8 0 0 0-8 8v10.99a8 8 0 0 0 8 8h10.99a8 8 0 0 0 8-8v-10.99a8 8 0 0 0-8-8ZM66.36 136.598H55.37a8 8 0 0 0-8 8v10.99a8 8 0 0 0 8 8h10.99a8 8 0 0 0 8-8v-10.99a8 8 0 0 0-8-8ZM100.351 66.617h-10.99a8 8 0 0 0-8 8v10.99a8 8 0 0 0 8 8h10.99a8 8 0 0 0 8-8v-10.99a8 8 0 0 0-8-8Z"/><path fill="#4B3CFB" d="M100.351 101.608h-10.99a8 8 0 0 0-8 8v10.99a8 8 0 0 0 8 8h10.99a8 8 0 0 0 8-8v-10.99a8 8 0 0 0-8-8Z"/><path fill="#EFF0F7" d="M100.351 136.598h-10.99a8 8 0 0 0-8 8v10.99a8 8 0 0 0 8 8h10.99a8 8 0 0 0 8-8v-10.99a8 8 0 0 0-8-8ZM134.341 66.617h-10.99a8 8 0 0 0-8 8v10.99a8 8 0 0 0 8 8h10.99a8 8 0 0 0 8-8v-10.99a8 8 0 0 0-8-8ZM134.341 101.608h-10.99a8 8 0 0 0-8 8v10.99a8 8 0 0 0 8 8h10.99a8 8 0 0 0 8-8v-10.99a8 8 0 0 0-8-8ZM134.341 136.598h-10.99a8 8 0 0 0-8 8v10.99a8 8 0 0 0 8 8h10.99a8 8 0 0 0 8-8v-10.99a8 8 0 0 0-8-8ZM168.331 66.617h-10.99a8 8 0 0 0-8 8v10.99a8 8 0 0 0 8 8h10.99a8 8 0 0 0 8-8v-10.99a8 8 0 0 0-8-8ZM168.331 101.608h-10.99a8 8 0 0 0-8 8v10.99a8 8 0 0 0 8 8h10.99a8 8 0 0 0 8-8v-10.99a8 8 0 0 0-8-8ZM168.331 136.598h-10.99a8 8 0 0 0-8 8v10.99a8 8 0 0 0 8 8h10.99a8 8 0 0 0 8-8v-10.99a8 8 0 0 0-8-8Z"/><path fill="#A0A3BD" d="M70.36 46.511H51.37a4 4 0 1 0 0 8h18.99a4 4 0 0 0 0-8ZM104.351 46.511h-18.99a4 4 0 1 0 0 8h18.99a4 4 0 0 0 0-8ZM138.341 46.511h-18.99a4 4 0 0 0 0 8h18.99a4 4 0 0 0 0-8ZM172.331 46.511h-18.99a4 4 0 0 0 0 8h18.99a4 4 0 0 0 0-8Z" opacity=".6"/></g><defs><clipPath id="a"><path fill="#fff" d="M0 0h240v240H0z"/></clipPath></defs></svg>