<svg xmlns="http://www.w3.org/2000/svg" width="328" height="328" fill="none"><g clip-path="url(#a)" filter="url(#b)"><path fill="#fff" d="M164 239c54.676 0 99-44.324 99-99s-44.324-99-99-99-99 44.324-99 99 44.324 99 99 99Z"/><g filter="url(#c)"><path fill="red" fill-opacity=".01" d="M151.484 115.647c-5.22-3.071-11.801.693-11.801 6.749v36.819c0 6.056 6.58 9.82 11.801 6.75l31.294-18.408c5.148-3.027 5.148-10.471.001-13.499l-31.295-18.411Z"/></g><path fill="#0075FF" d="M148.165 109.714c-5.221-3.071-11.802.692-11.802 6.749v47.075c0 6.057 6.581 9.821 11.801 6.75l40.012-23.535c5.148-3.028 5.148-10.471.001-13.499l-40.012-23.54Z"/></g><defs><filter id="b" width="328" height="328" x="0" y="0" color-interpolation-filters="sRGB" filterUnits="userSpaceOnUse"><feFlood flood-opacity="0" result="BackgroundImageFix"/><feColorMatrix in="SourceAlpha" result="hardAlpha" values="0 0 0 0 0 0 0 0 0 0 0 0 0 0 0 0 0 0 127 0"/><feOffset dy="24"/><feGaussianBlur stdDeviation="32.5"/><feColorMatrix values="0 0 0 0 0.0784314 0 0 0 0 0.0784314 0 0 0 0 0.168627 0 0 0 0.16 0"/><feBlend in2="BackgroundImageFix" result="effect1_dropShadow_1_549"/><feBlend in="SourceGraphic" in2="effect1_dropShadow_1_549" result="shape"/></filter><filter id="c" width="46.956" height="62.504" x="139.683" y="114.554" color-interpolation-filters="sRGB" filterUnits="userSpaceOnUse"><feFlood flood-opacity="0" result="BackgroundImageFix"/><feBlend in="SourceGraphic" in2="BackgroundImageFix" result="shape"/><feColorMatrix in="SourceAlpha" result="hardAlpha" values="0 0 0 0 0 0 0 0 0 0 0 0 0 0 0 0 0 0 127 0"/><feOffset dy="10"/><feGaussianBlur stdDeviation="14"/><feComposite in2="hardAlpha" k2="-1" k3="1" operator="arithmetic"/><feColorMatrix values="0 0 0 0 0 0 0 0 0 0.46 0 0 0 0 1 0 0 0 0.26 0"/><feBlend in2="shape" result="effect1_innerShadow_1_549"/></filter><clipPath id="a"><path fill="#fff" d="M65 41h198v198H65z"/></clipPath></defs></svg>